<svg width="20" height="20" viewBox="0 0 20 20" fill="none" xmlns="http://www.w3.org/2000/svg">
<path d="M15.9566 4.37501H4.44579L3.46246 2.61251C3.40829 2.51527 3.32913 2.43426 3.23317 2.37786C3.13722 2.32145 3.02793 2.2917 2.91663 2.29167H1.66663C1.50087 2.29167 1.34189 2.35752 1.22468 2.47473C1.10747 2.59194 1.04163 2.75091 1.04163 2.91667C1.04163 3.08243 1.10747 3.2414 1.22468 3.35861C1.34189 3.47582 1.50087 3.54167 1.66663 3.54167H2.54996L3.51996 5.28167L5.75829 10.2333L5.76079 10.2383L5.95829 10.6742L3.71079 13.0717C3.63158 13.1562 3.57742 13.2611 3.55435 13.3746C3.53128 13.4881 3.54021 13.6058 3.58014 13.7145C3.62007 13.8232 3.68944 13.9187 3.78049 13.9903C3.87155 14.0619 3.98071 14.1068 4.09579 14.12L6.14413 14.3542C8.70631 14.6475 11.2936 14.6475 13.8558 14.3542L15.9041 14.1208C16.0689 14.1021 16.2194 14.0186 16.3227 13.8888C16.4259 13.759 16.4733 13.5935 16.4545 13.4288C16.4358 13.264 16.3523 13.1134 16.2225 13.0102C16.0927 12.907 15.9272 12.8596 15.7625 12.8783L13.7141 13.1117C11.246 13.3937 8.75387 13.3937 6.28579 13.1117L5.47329 13.02L7.12329 11.26C7.13897 11.243 7.15371 11.2252 7.16746 11.2067L7.79413 11.2883C8.67329 11.4033 9.56246 11.4258 10.4458 11.355C11.4662 11.2743 12.4604 10.9921 13.371 10.5246C14.2816 10.0572 15.0905 9.41377 15.7508 8.63167L16.2333 8.06084C16.2492 8.04175 16.264 8.02172 16.2775 8.00084L17.1758 6.6325C17.8125 5.66251 17.1166 4.37501 15.9566 4.37501ZM5.41663 15.4167C5.08511 15.4167 4.76716 15.5484 4.53274 15.7828C4.29832 16.0172 4.16663 16.3352 4.16663 16.6667C4.16663 16.9982 4.29832 17.3161 4.53274 17.5506C4.76716 17.785 5.08511 17.9167 5.41663 17.9167C5.74815 17.9167 6.06609 17.785 6.30051 17.5506C6.53493 17.3161 6.66663 16.9982 6.66663 16.6667C6.66663 16.3352 6.53493 16.0172 6.30051 15.7828C6.06609 15.5484 5.74815 15.4167 5.41663 15.4167ZM13.3333 16.6667C13.3333 16.3352 13.465 16.0172 13.6994 15.7828C13.9338 15.5484 14.2518 15.4167 14.5833 15.4167C14.9148 15.4167 15.2328 15.5484 15.4672 15.7828C15.7016 16.0172 15.8333 16.3352 15.8333 16.6667C15.8333 16.9982 15.7016 17.3161 15.4672 17.5506C15.2328 17.785 14.9148 17.9167 14.5833 17.9167C14.2518 17.9167 13.9338 17.785 13.6994 17.5506C13.465 17.3161 13.3333 16.9982 13.3333 16.6667Z" fill="#ABABAB"/>
</svg>
