<svg width="20" height="21" viewBox="0 0 20 21" fill="none" xmlns="http://www.w3.org/2000/svg">
<path d="M9.375 16.3333C9.375 16.1676 9.44085 16.0086 9.55806 15.8914C9.67527 15.7742 9.83424 15.7083 10 15.7083H15C15.0553 15.7083 15.1082 15.6864 15.1473 15.6473C15.1864 15.6082 15.2083 15.5553 15.2083 15.5V5.5C15.2083 5.44474 15.1864 5.39175 15.1473 5.35268C15.1082 5.31361 15.0553 5.29166 15 5.29166H10C9.83424 5.29166 9.67527 5.22582 9.55806 5.10861C9.44085 4.9914 9.375 4.83242 9.375 4.66666C9.375 4.5009 9.44085 4.34193 9.55806 4.22472C9.67527 4.10751 9.83424 4.04166 10 4.04166H15C15.805 4.04166 16.4583 4.695 16.4583 5.5V15.5C16.4583 15.8868 16.3047 16.2577 16.0312 16.5312C15.7577 16.8047 15.3868 16.9583 15 16.9583H10C9.83424 16.9583 9.67527 16.8925 9.55806 16.7753C9.44085 16.6581 9.375 16.4991 9.375 16.3333Z" fill="#570A7F"/>
<path d="M2.91663 11.4292C2.91663 11.6502 3.00442 11.8621 3.1607 12.0184C3.31698 12.1747 3.52895 12.2625 3.74996 12.2625H7.79663C7.81579 12.5592 7.83996 12.8542 7.86829 13.1508L7.89329 13.405C7.9026 13.5008 7.93488 13.5929 7.98739 13.6736C8.0399 13.7542 8.11109 13.821 8.19493 13.8683C8.27876 13.9156 8.37276 13.9419 8.46894 13.9451C8.56513 13.9483 8.66067 13.9283 8.74746 13.8867C10.2705 13.1565 11.6493 12.1574 12.8175 10.9375L12.8425 10.9117C12.9497 10.7998 13.0096 10.6508 13.0096 10.4958C13.0096 10.3409 12.9497 10.1919 12.8425 10.08L12.8175 10.0542C11.6493 8.83422 10.2705 7.83515 8.74746 7.105C8.66067 7.0634 8.56513 7.04334 8.46894 7.04654C8.37276 7.04974 8.27876 7.07609 8.19493 7.12336C8.11109 7.17064 8.0399 7.23744 7.98739 7.31809C7.93488 7.39875 7.9026 7.49088 7.89329 7.58667L7.86829 7.84083C7.83996 8.13667 7.81579 8.4325 7.79663 8.72917H3.74996C3.52895 8.72917 3.31698 8.81696 3.1607 8.97324C3.00442 9.12952 2.91663 9.34149 2.91663 9.5625V11.4292Z" fill="#570A7F"/>
</svg>
