<svg width="129" height="28" viewBox="0 0 129 28" fill="none" xmlns="http://www.w3.org/2000/svg">
<path d="M0.325134 2.35715H11.902C12.9294 2.35715 13.8494 2.51192 14.6618 2.82143C15.4981 3.13095 16.203 3.55952 16.7764 4.10715C17.3499 4.65477 17.78 5.33334 18.0667 6.14286C18.3773 6.92858 18.5327 7.79768 18.5327 8.75C18.5327 9.70233 18.4013 10.512 18.1384 11.1786C17.8995 11.8214 17.5649 12.3571 17.1348 12.7857C16.7286 13.2143 16.2508 13.5357 15.7012 13.75C15.1756 13.9643 14.6259 14.0834 14.0525 14.1071V14.3214C14.6021 14.3214 15.1874 14.4286 15.8087 14.6429C16.4538 14.8571 17.0393 15.2023 17.5649 15.6786C18.1146 16.1309 18.5685 16.7263 18.9269 17.4643C19.2853 18.1786 19.4645 19.0714 19.4645 20.1429C19.4645 21.1429 19.2973 22.0834 18.9628 22.9643C18.6522 23.8214 18.2101 24.5714 17.6366 25.2143C17.0632 25.8571 16.3822 26.3691 15.5937 26.75C14.8051 27.1071 13.9449 27.2857 13.0131 27.2857H0.325134V2.35715ZM5.05623 23.2857H11.6511C12.5591 23.2857 13.2639 23.0595 13.7657 22.6071C14.2675 22.1309 14.5184 21.4523 14.5184 20.5714V19.3571C14.5184 18.4763 14.2675 17.7977 13.7657 17.3214C13.2639 16.8452 12.5591 16.6071 11.6511 16.6071H5.05623V23.2857ZM5.05623 12.75H10.8984C11.7586 12.75 12.4276 12.5238 12.9055 12.0714C13.3835 11.5952 13.6224 10.9405 13.6224 10.1071V9C13.6224 8.16661 13.3835 7.52376 12.9055 7.07143C12.4276 6.59518 11.7586 6.35715 10.8984 6.35715H5.05623V12.75ZM31.2236 27.7143C29.8857 27.7143 28.6789 27.488 27.6036 27.0357C26.5524 26.5834 25.6444 25.9286 24.8797 25.0714C24.139 24.2143 23.5655 23.1905 23.1593 22C22.7532 20.7857 22.55 19.4286 22.55 17.9286C22.55 16.4286 22.7532 15.0834 23.1593 13.8929C23.5655 12.7023 24.139 11.6905 24.8797 10.8571C25.6444 10 26.5524 9.34518 27.6036 8.89286C28.6789 8.44054 29.8857 8.21429 31.2236 8.21429C32.5618 8.21429 33.7684 8.44054 34.8436 8.89286C35.9189 9.34518 36.8269 10 37.5676 10.8571C38.3323 11.6905 38.9177 12.7023 39.3238 13.8929C39.7301 15.0834 39.9331 16.4286 39.9331 17.9286C39.9331 19.4286 39.7301 20.7857 39.3238 22C38.9177 23.1905 38.3323 24.2143 37.5676 25.0714C36.8269 25.9286 35.9189 26.5834 34.8436 27.0357C33.7684 27.488 32.5618 27.7143 31.2236 27.7143ZM31.2236 24.0357C32.4422 24.0357 33.3981 23.6666 34.091 22.9286C34.784 22.1905 35.1304 21.1071 35.1304 19.6786V16.2143C35.1304 14.8095 34.784 13.738 34.091 13C33.3981 12.262 32.4422 11.8929 31.2236 11.8929C30.029 11.8929 29.0851 12.262 28.3921 13C27.6993 13.738 27.3527 14.8095 27.3527 16.2143V19.6786C27.3527 21.1071 27.6993 22.1905 28.3921 22.9286C29.0851 23.6666 30.029 24.0357 31.2236 24.0357ZM49.7025 27.2857C48.1254 27.2857 46.9188 26.8809 46.0825 26.0714C45.2701 25.238 44.8639 24.0595 44.8639 22.5357V12.2857H42.1041V8.64286H43.5377C44.2307 8.64286 44.6967 8.48804 44.9355 8.17858C45.1984 7.84518 45.3298 7.35715 45.3298 6.71429V3.53572H49.4516V8.64286H53.2866V12.2857H49.4516V23.6429H52.9999V27.2857H49.7025ZM64.5452 27.7143C63.2071 27.7143 62.0004 27.488 60.9252 27.0357C59.8738 26.5834 58.9657 25.9286 58.2012 25.0714C57.4604 24.2143 56.8869 23.1905 56.4808 22C56.0746 20.7857 55.8715 19.4286 55.8715 17.9286C55.8715 16.4286 56.0746 15.0834 56.4808 13.8929C56.8869 12.7023 57.4604 11.6905 58.2012 10.8571C58.9657 10 59.8738 9.34518 60.9252 8.89286C62.0004 8.44054 63.2071 8.21429 64.5452 8.21429C65.8832 8.21429 67.0899 8.44054 68.1652 8.89286C69.2404 9.34518 70.1483 10 70.8892 10.8571C71.6537 11.6905 72.2391 12.7023 72.6454 13.8929C73.0515 15.0834 73.2547 16.4286 73.2547 17.9286C73.2547 19.4286 73.0515 20.7857 72.6454 22C72.2391 23.1905 71.6537 24.2143 70.8892 25.0714C70.1483 25.9286 69.2404 26.5834 68.1652 27.0357C67.0899 27.488 65.8832 27.7143 64.5452 27.7143ZM64.5452 24.0357C65.7638 24.0357 66.7195 23.6666 67.4125 22.9286C68.1053 22.1905 68.4519 21.1071 68.4519 19.6786V16.2143C68.4519 14.8095 68.1053 13.738 67.4125 13C66.7195 12.262 65.7638 11.8929 64.5452 11.8929C63.3504 11.8929 62.4065 12.262 61.7137 13C61.0207 13.738 60.6743 14.8095 60.6743 16.2143V19.6786C60.6743 21.1071 61.0207 22.1905 61.7137 22.9286C62.4065 23.6666 63.3504 24.0357 64.5452 24.0357ZM77.3218 0.857147H81.9095V11.7143H82.0529C82.3875 10.6429 83.0206 9.79768 83.9525 9.17858C84.8844 8.53572 85.9717 8.21429 87.2141 8.21429C89.6035 8.21429 91.4196 9.05947 92.662 10.75C93.9285 12.4166 94.5616 14.8095 94.5616 17.9286C94.5616 21.0714 93.9285 23.488 92.662 25.1786C91.4196 26.8691 89.6035 27.7143 87.2141 27.7143C85.9717 27.7143 84.8844 27.3929 83.9525 26.75C83.0445 26.1071 82.4113 25.25 82.0529 24.1786H81.9095V27.2857H77.3218V0.857147ZM85.7446 23.9286C86.9394 23.9286 87.9071 23.5357 88.6478 22.75C89.3884 21.9643 89.7589 20.9048 89.7589 19.5714V16.3571C89.7589 15.0238 89.3884 13.9643 88.6478 13.1786C87.9071 12.3691 86.9394 11.9643 85.7446 11.9643C84.6455 11.9643 83.7255 12.238 82.9848 12.7857C82.268 13.3334 81.9095 14.0595 81.9095 14.9643V20.8929C81.9095 21.8691 82.268 22.6191 82.9848 23.1429C83.7255 23.6666 84.6455 23.9286 85.7446 23.9286ZM106.232 27.7143C104.894 27.7143 103.687 27.488 102.612 27.0357C101.561 26.5834 100.653 25.9286 99.888 25.0714C99.1474 24.2143 98.5739 23.1905 98.1676 22C97.7614 20.7857 97.5583 19.4286 97.5583 17.9286C97.5583 16.4286 97.7614 15.0834 98.1676 13.8929C98.5739 12.7023 99.1474 11.6905 99.888 10.8571C100.653 10 101.561 9.34518 102.612 8.89286C103.687 8.44054 104.894 8.21429 106.232 8.21429C107.57 8.21429 108.777 8.44054 109.852 8.89286C110.927 9.34518 111.835 10 112.576 10.8571C113.341 11.6905 113.926 12.7023 114.332 13.8929C114.738 15.0834 114.942 16.4286 114.942 17.9286C114.942 19.4286 114.738 20.7857 114.332 22C113.926 23.1905 113.341 24.2143 112.576 25.0714C111.835 25.9286 110.927 26.5834 109.852 27.0357C108.777 27.488 107.57 27.7143 106.232 27.7143ZM106.232 24.0357C107.451 24.0357 108.406 23.6666 109.099 22.9286C109.792 22.1905 110.139 21.1071 110.139 19.6786V16.2143C110.139 14.8095 109.792 13.738 109.099 13C108.406 12.262 107.451 11.8929 106.232 11.8929C105.037 11.8929 104.094 12.262 103.401 13C102.708 13.738 102.361 14.8095 102.361 16.2143V19.6786C102.361 21.1071 102.708 22.1905 103.401 22.9286C104.094 23.6666 105.037 24.0357 106.232 24.0357ZM124.711 27.2857C123.134 27.2857 121.927 26.8809 121.091 26.0714C120.279 25.238 119.872 24.0595 119.872 22.5357V12.2857H117.112V8.64286H118.546C119.239 8.64286 119.705 8.48804 119.944 8.17858C120.207 7.84518 120.338 7.35715 120.338 6.71429V3.53572H124.46V8.64286H128.296V12.2857H124.46V23.6429H128.008V27.2857H124.711Z" fill="#1D1B27"/>
</svg>
