<svg width="20" height="20" viewBox="0 0 20 20" fill="none" xmlns="http://www.w3.org/2000/svg">
<path d="M16.53 14.0883C16.8991 10.5383 16.8991 6.96083 16.53 3.41083C16.415 2.30083 15.1342 1.73833 14.2383 2.40416L10.8191 4.94583C9.74114 5.7476 8.43347 6.18067 7.08998 6.18083H3.89998C3.67897 6.18083 3.46701 6.26863 3.31073 6.42491C3.15445 6.58119 3.06665 6.79315 3.06665 7.01416V10.4858C3.06665 10.7068 3.15445 10.9188 3.31073 11.0751C3.46701 11.2314 3.67897 11.3192 3.89998 11.3192H7.09165C8.43475 11.3193 9.7421 11.752 10.82 12.5533L14.2392 15.095C15.135 15.7617 16.415 15.1992 16.53 14.0883Z" fill="#ABABAB"/>
<path d="M7.5775 13.1683C7.60114 13.076 7.60335 12.9795 7.58396 12.8862C7.56457 12.7929 7.52409 12.7052 7.46563 12.63C7.40717 12.5547 7.33226 12.4938 7.24665 12.4519C7.16103 12.41 7.06698 12.3883 6.97167 12.3883H5.305C5.18901 12.3885 5.07536 12.4209 4.97675 12.482C4.87814 12.5431 4.79848 12.6304 4.74667 12.7342L3.91334 14.4008C3.8447 14.5382 3.82902 14.696 3.86929 14.8441C3.90956 14.9923 4.00296 15.1205 4.13167 15.2042L5.91 16.3575C5.99322 16.4115 6.0881 16.445 6.1868 16.4551C6.2855 16.4652 6.38519 16.4516 6.47761 16.4155C6.57004 16.3795 6.65255 16.3219 6.71832 16.2476C6.78409 16.1733 6.83123 16.0845 6.85584 15.9883L7.5775 13.1683Z" fill="#ABABAB"/>
</svg>
