<svg width="20" height="20" viewBox="0 0 20 20" fill="none" xmlns="http://www.w3.org/2000/svg">
<path fill-rule="evenodd" clip-rule="evenodd" d="M6.04162 5.94167V6.25H4.79079C4.61049 6.24989 4.43617 6.31466 4.29968 6.43247C4.1632 6.55029 4.07367 6.71329 4.04746 6.89167L3.86662 8.13584C3.51077 10.5645 3.51077 13.0321 3.86662 15.4608C3.94419 15.9897 4.1958 16.4777 4.5817 16.8476C4.96759 17.2175 5.46576 17.4482 5.99746 17.5033L6.52162 17.5583C8.83496 17.7983 11.1666 17.7983 13.48 17.5583L14.005 17.5033C14.5365 17.448 15.0345 17.2172 15.4202 16.8473C15.8059 16.4775 16.0574 15.9896 16.135 15.4608C16.4908 13.0321 16.4908 10.5645 16.135 8.13584L15.9533 6.89167C15.9271 6.71329 15.8375 6.55029 15.7011 6.43247C15.5646 6.31466 15.3903 6.24989 15.21 6.25H13.9583V5.94167C13.9583 4.89186 13.5413 3.88504 12.7989 3.14271C12.0566 2.40037 11.0498 1.98334 9.99996 1.98334C8.95014 1.98334 7.94332 2.40037 7.20099 3.14271C6.45866 3.88504 6.04162 4.89186 6.04162 5.94167ZM10.675 3.31917C10.2749 3.21621 9.85652 3.20614 9.45194 3.28973C9.04736 3.37332 8.66726 3.54837 8.34074 3.80146C8.01422 4.05456 7.74993 4.37899 7.56809 4.74995C7.38625 5.12091 7.29168 5.52854 7.29162 5.94167V6.25H12.7083V5.94167C12.7082 5.34094 12.5084 4.75728 12.1403 4.28254C11.7722 3.80779 11.2567 3.46889 10.675 3.31917ZM7.29162 7.5C7.29162 7.33424 7.22577 7.17527 7.10856 7.05806C6.99135 6.94085 6.83238 6.875 6.66662 6.875C6.50086 6.875 6.34189 6.94085 6.22468 7.05806C6.10747 7.17527 6.04162 7.33424 6.04162 7.5V9.16667C6.04162 9.33243 6.10747 9.4914 6.22468 9.60861C6.34189 9.72582 6.50086 9.79167 6.66662 9.79167C6.83238 9.79167 6.99135 9.72582 7.10856 9.60861C7.22577 9.4914 7.29162 9.33243 7.29162 9.16667V7.5ZM13.9583 7.5C13.9583 7.33424 13.8924 7.17527 13.7752 7.05806C13.658 6.94085 13.499 6.875 13.3333 6.875C13.1675 6.875 13.0086 6.94085 12.8913 7.05806C12.7741 7.17527 12.7083 7.33424 12.7083 7.5V9.16667C12.7083 9.33243 12.7741 9.4914 12.8913 9.60861C13.0086 9.72582 13.1675 9.79167 13.3333 9.79167C13.499 9.79167 13.658 9.72582 13.7752 9.60861C13.8924 9.4914 13.9583 9.33243 13.9583 9.16667V7.5Z" fill="#ABABAB"/>
</svg>
