<svg width="20" height="20" viewBox="0 0 20 20" fill="none" xmlns="http://www.w3.org/2000/svg">
<path fill-rule="evenodd" clip-rule="evenodd" d="M17.5083 8.47584L17.5108 11.495C17.4891 11.7825 17.4616 12.07 17.4283 12.3567C17.3985 12.5929 17.29 12.8121 17.1204 12.9792C16.9508 13.1462 16.7299 13.2513 16.4933 13.2775C14.9599 13.4492 13.3733 13.4492 11.8399 13.2775C11.6033 13.2513 11.3824 13.1462 11.2128 12.9792C11.0432 12.8121 10.9348 12.5929 10.9049 12.3567C10.7218 10.7909 10.7218 9.20911 10.9049 7.64334C10.9348 7.40715 11.0432 7.18788 11.2128 7.02083C11.3824 6.85379 11.6033 6.74871 11.8399 6.72251C13.3863 6.55112 14.9469 6.55112 16.4933 6.72251C16.9824 6.77667 17.3724 7.16417 17.4283 7.64334C17.4608 7.92001 17.4874 8.19834 17.5083 8.47667M14.1666 8.75001C13.8351 8.75001 13.5171 8.8817 13.2827 9.11612C13.0483 9.35054 12.9166 9.66849 12.9166 10C12.9166 10.3315 13.0483 10.6495 13.2827 10.8839C13.5171 11.1183 13.8351 11.25 14.1666 11.25C14.4981 11.25 14.8161 11.1183 15.0505 10.8839C15.2849 10.6495 15.4166 10.3315 15.4166 10C15.4166 9.66849 15.2849 9.35054 15.0505 9.11612C14.8161 8.8817 14.4981 8.75001 14.1666 8.75001Z" fill="#ABABAB"/>
<path d="M17.0033 5.03334C17.1325 5.25751 16.8891 5.50834 16.6316 5.48001C14.9933 5.29839 13.3399 5.29839 11.7016 5.48001C11.1841 5.53747 10.7012 5.76809 10.3312 6.13445C9.96122 6.50081 9.72585 6.98143 9.66329 7.49834C9.46892 9.16046 9.46892 10.8396 9.66329 12.5017C9.72585 13.0186 9.96122 13.4992 10.3312 13.8656C10.7012 14.2319 11.1841 14.4625 11.7016 14.52C13.3399 14.7017 14.9933 14.7017 16.6316 14.52C16.8908 14.4908 17.1366 14.7442 17.0058 14.97C16.6786 15.5343 16.2227 16.0133 15.6753 16.3681C15.1279 16.7229 14.5045 16.9434 13.8558 17.0117L13.3125 17.0683C10.5534 17.3584 7.77056 17.3391 5.01579 17.0108L4.65579 16.9683C3.93369 16.8824 3.26071 16.5586 2.7429 16.0481C2.22509 15.5375 1.89188 14.8692 1.79579 14.1483C1.42842 11.395 1.42842 8.60503 1.79579 5.85167C1.89188 5.13086 2.22509 4.46251 2.7429 3.95194C3.26071 3.44137 3.93369 3.11761 4.65579 3.03167L5.01579 2.98917C7.77055 2.66077 10.5534 2.64148 13.3125 2.93167L13.8558 2.98917C14.5045 3.05737 15.1279 3.27814 15.6749 3.63343C16.222 3.98871 16.6772 4.46842 17.0033 5.03334Z" fill="#ABABAB"/>
</svg>
