<svg width="20" height="20" viewBox="0 0 20 20" fill="none" xmlns="http://www.w3.org/2000/svg">
<path d="M9.99996 7.29167C9.28166 7.29167 8.59279 7.57701 8.08488 8.08492C7.57697 8.59283 7.29163 9.28171 7.29163 10C7.29163 10.7183 7.57697 11.4072 8.08488 11.9151C8.59279 12.423 9.28166 12.7083 9.99996 12.7083C10.7183 12.7083 11.4071 12.423 11.915 11.9151C12.423 11.4072 12.7083 10.7183 12.7083 10C12.7083 9.28171 12.423 8.59283 11.915 8.08492C11.4071 7.57701 10.7183 7.29167 9.99996 7.29167Z" fill="#ABABAB"/>
<path fill-rule="evenodd" clip-rule="evenodd" d="M10.5667 2.33833C10.3934 2.24202 10.1983 2.19147 10 2.19147C9.80174 2.19147 9.60671 2.24202 9.43337 2.33833L3.43337 5.67167C3.25149 5.77273 3.09995 5.9206 2.99445 6.09995C2.88895 6.27929 2.83334 6.48359 2.83337 6.69167V13.3083C2.83337 13.7325 3.06337 14.1225 3.43337 14.3283L9.43337 17.6617C9.60671 17.758 9.80174 17.8085 10 17.8085C10.1983 17.8085 10.3934 17.758 10.5667 17.6617L16.5667 14.3283C16.7485 14.2273 16.8999 14.0796 17.0054 13.9004C17.1109 13.7212 17.1666 13.5171 17.1667 13.3092V6.69167C17.1667 6.48359 17.1111 6.27929 17.0056 6.09995C16.9001 5.9206 16.7486 5.77273 16.5667 5.67167L10.5667 2.33833ZM6.04171 10C6.04171 8.95019 6.45874 7.94337 7.20108 7.20104C7.94341 6.4587 8.95023 6.04167 10 6.04167C11.0499 6.04167 12.0567 6.4587 12.799 7.20104C13.5413 7.94337 13.9584 8.95019 13.9584 10C13.9584 11.0498 13.5413 12.0566 12.799 12.799C12.0567 13.5413 11.0499 13.9583 10 13.9583C8.95023 13.9583 7.94341 13.5413 7.20108 12.799C6.45874 12.0566 6.04171 11.0498 6.04171 10Z" fill="#ABABAB"/>
</svg>
