<svg width="20" height="20" viewBox="0 0 20 20" fill="none" xmlns="http://www.w3.org/2000/svg">
<path d="M7.55668 2.69C6.4113 2.56301 5.2554 2.56301 4.11002 2.69C3.75255 2.7298 3.419 2.88912 3.16339 3.14216C2.90778 3.3952 2.74509 3.72713 2.70168 4.08417C2.56575 5.24632 2.56575 6.42035 2.70168 7.5825C2.74509 7.93955 2.90778 8.27147 3.16339 8.52451C3.419 8.77755 3.75255 8.93687 4.11002 8.97667C5.24585 9.10334 6.42085 9.10334 7.55668 8.97667C7.91415 8.93687 8.24771 8.77755 8.50331 8.52451C8.75892 8.27147 8.92161 7.93955 8.96502 7.5825C9.10096 6.42035 9.10096 5.24632 8.96502 4.08417C8.92161 3.72713 8.75892 3.3952 8.50331 3.14216C8.24771 2.88912 7.91415 2.7298 7.55668 2.69ZM7.55668 11.0233C6.41131 10.8963 5.2554 10.8963 4.11002 11.0233C3.75255 11.0631 3.419 11.2225 3.16339 11.4755C2.90778 11.7285 2.74509 12.0605 2.70168 12.4175C2.56575 13.5797 2.56575 14.7537 2.70168 15.9158C2.74509 16.2729 2.90778 16.6048 3.16339 16.8578C3.419 17.1109 3.75255 17.2702 4.11002 17.31C5.24585 17.4367 6.42085 17.4367 7.55668 17.31C7.91415 17.2702 8.24771 17.1109 8.50331 16.8578C8.75892 16.6048 8.92161 16.2729 8.96502 15.9158C9.10097 14.7537 9.10097 13.5797 8.96502 12.4175C8.92161 12.0605 8.75892 11.7285 8.50331 11.4755C8.24771 11.2225 7.91415 11.0631 7.55668 11.0233ZM15.89 2.69C14.7446 2.56301 13.5887 2.56301 12.4434 2.69C12.0859 2.7298 11.7523 2.88912 11.4967 3.14216C11.2411 3.3952 11.0784 3.72713 11.035 4.08417C10.8991 5.24632 10.8991 6.42035 11.035 7.5825C11.0784 7.93955 11.2411 8.27147 11.4967 8.52451C11.7523 8.77755 12.0859 8.93687 12.4434 8.97667C13.58 9.10334 14.7534 9.10334 15.89 8.97667C16.2475 8.93687 16.581 8.77755 16.8366 8.52451C17.0923 8.27147 17.2549 7.93955 17.2984 7.5825C17.4343 6.42035 17.4343 5.24632 17.2984 4.08417C17.2549 3.72713 17.0923 3.3952 16.8366 3.14216C16.581 2.88912 16.2475 2.7298 15.89 2.69ZM15.89 11.0233C14.7446 10.8963 13.5887 10.8963 12.4434 11.0233C12.0859 11.0631 11.7523 11.2225 11.4967 11.4755C11.2411 11.7285 11.0784 12.0605 11.035 12.4175C10.8991 13.5797 10.8991 14.7537 11.035 15.9158C11.0784 16.2729 11.2411 16.6048 11.4967 16.8578C11.7523 17.1109 12.0859 17.2702 12.4434 17.31C13.58 17.4367 14.7534 17.4367 15.89 17.31C16.2475 17.2702 16.581 17.1109 16.8366 16.8578C17.0923 16.6048 17.2549 16.2729 17.2984 15.9158C17.4343 14.7537 17.4343 13.5797 17.2984 12.4175C17.2549 12.0605 17.0923 11.7285 16.8366 11.4755C16.581 11.2225 16.2475 11.0631 15.89 11.0233Z" fill="#ABABAB"/>
</svg>
