<svg width="20" height="20" viewBox="0 0 20 20" fill="none" xmlns="http://www.w3.org/2000/svg">
<path d="M10.7209 2.49667C10.6476 2.37038 10.5425 2.26556 10.416 2.1927C10.2895 2.11983 10.146 2.08148 10.0001 2.08148C9.85407 2.08148 9.71064 2.11983 9.58413 2.1927C9.45762 2.26556 9.35248 2.37038 9.27922 2.49667L7.01756 6.395C6.93922 6.52983 6.83161 6.64535 6.70267 6.73304C6.57373 6.82074 6.42674 6.87836 6.27256 6.90167L2.03339 7.54167C1.32172 7.65 1.07172 8.54833 1.62672 9.00833L4.78422 11.6233C5.07589 11.8658 5.21339 12.2483 5.14256 12.6208L4.31672 16.9583C4.2874 17.1124 4.30213 17.2716 4.35923 17.4176C4.41632 17.5637 4.51347 17.6906 4.63951 17.784C4.76554 17.8773 4.91534 17.9331 5.0717 17.9451C5.22805 17.9571 5.38461 17.9247 5.52339 17.8517L9.51506 15.75C9.66461 15.6713 9.83107 15.6302 10.0001 15.6302C10.169 15.6302 10.3355 15.6713 10.4851 15.75L14.4767 17.8517C14.6155 17.9247 14.7721 17.9571 14.9284 17.9451C15.0848 17.9331 15.2346 17.8773 15.3606 17.784C15.4866 17.6906 15.5838 17.5637 15.6409 17.4176C15.698 17.2716 15.7127 17.1124 15.6834 16.9583L14.8576 12.6208C14.8226 12.4377 14.8373 12.2486 14.9004 12.0731C14.9634 11.8976 15.0724 11.7423 15.2159 11.6233L18.3742 9.0075C18.9284 8.54917 18.6784 7.64917 17.9659 7.54167L13.7284 6.90167C13.5741 6.87848 13.4269 6.82091 13.2978 6.73321C13.1687 6.64551 13.061 6.52993 12.9826 6.395L10.7209 2.49667Z" fill="#ABABAB"/>
</svg>
